<svg xmlns="http://www.w3.org/2000/svg" version="1.1" xmlns:xlink="http://www.w3.org/1999/xlink" xmlns:svgjs="http://svgjs.dev/svgjs" width="1000" height="623" viewBox="0 0 1000 623"><g transform="matrix(1,0,0,1,-0.6060606060606233,0.2522267206477409)"><svg viewBox="0 0 396 247" data-background-color="#ffffff" preserveAspectRatio="xMidYMid meet" height="623" width="1000" xmlns="http://www.w3.org/2000/svg" xmlns:xlink="http://www.w3.org/1999/xlink"><g id="tight-bounds" transform="matrix(1,0,0,1,0.2400000000000091,-0.09999999999999432)"><svg viewBox="0 0 395.52 247.2" height="247.2" width="395.52"><g><svg></svg></g><g><svg viewBox="0 0 395.52 247.2" height="247.2" width="395.52"><g transform="matrix(1,0,0,1,39.55199999999999,81.63913555992141)"><svg viewBox="0 0 316.416 83.92172888015716" height="83.92172888015716" width="316.416"><g><svg viewBox="0 0 316.416 83.92172888015716" height="83.92172888015716" width="316.416"><g><svg viewBox="0 0 316.416 83.92172888015716" height="83.92172888015716" width="316.416"><g id="textblocktransform"><svg viewBox="0 0 316.416 83.92172888015716" height="83.92172888015716" width="316.416" id="textblock"><g><svg viewBox="0 0 316.416 83.92172888015716" height="83.92172888015716" width="316.416"><g transform="matrix(1,0,0,1,0,0)"><svg width="316.416" viewBox="2.8499999046325684 -40.5 152.6899871826172 40.5" height="83.92172888015716" data-palette-color="#ff6bb5"><path d="M9.3 0L2.85 0 3.55-40.5 13.15-40.5 17.6-16.95 22.4-40.5 31.65-40.5 32.35 0 26 0 25.25-26.95 20.55 0 14.9 0 9.9-27.15 9.3 0ZM51.5 0L42.9 0 42.9-16.55 35.2-40.5 43.65-40.5 47.5-27.7 50.95-40.5 59.05-40.5 51.5-16.55 51.5 0ZM83.79 0L74.84 0 74.84-40.5 92.34-40.5 92.34-34.45 83.79-34.45 83.79-24.25 91.24-24.25 91.24-18 83.79-18 83.79 0ZM114.54 0L96.29 0 96.29-40.5 105.24-40.5 105.24-6.05 114.54-6.05 114.54 0ZM127.04 0L118.09 0 118.09-40.5 127.04-40.5 127.04 0ZM137.84 0L130.44 0 138.29-21.8 130.79-40.5 139.24-40.5 143.69-29.55 147.29-40.5 154.74-40.5 147.64-19.45 155.54 0 147.14 0 142.19-12.1 137.84 0Z" opacity="1" transform="matrix(1,0,0,1,0,0)" fill="#ff6bb5" class="undefined-text-0" data-fill-palette-color="primary" id="text-0"></path></svg></g></svg></g></svg></g></svg></g><g></g></svg></g></svg></g><g><path xmlns="http://www.w3.org/2000/svg" d="M0 247.2v-247.2h395.52v247.2zM387.952 239.632v-232.064h-380.384v232.064z" fill="#ff6bb5" fill-rule="nonzero" stroke="none" stroke-width="1" stroke-linecap="butt" stroke-linejoin="miter" stroke-miterlimit="10" stroke-dasharray="" stroke-dashoffset="0" font-family="none" font-weight="none" font-size="none" text-anchor="none" style="mix-blend-mode: normal" data-fill-palette-color="tertiary"></path></g></svg></g><defs></defs></svg><rect width="395.52" height="247.2" fill="none" stroke="none" visibility="hidden"></rect></g></svg></g></svg>