<svg xmlns="http://www.w3.org/2000/svg" width="1000" height="623"><svg viewBox="0 0 396 247" data-background-color="#ffffff" height="623" width="1000" xmlns="http://www.w3.org/2000/svg" xmlns:xlink="http://www.w3.org/1999/xlink" transform="translate(-.606 .252)"><svg viewBox="0 0 395.52 247.2" height="247.2" width="395.52" id="tight-bounds" transform="translate(.24 -.1)"><svg/><svg viewBox="0 0 395.52 247.2" height="247.2" width="395.52"><svg viewBox="0 0 316.416 83.922" height="83.922" width="316.416" transform="translate(39.552 81.64)"><svg viewBox="0 0 316.416 83.922" height="83.922" width="316.416"><svg viewBox="0 0 316.416 83.922" height="83.922" width="316.416"><g id="textblocktransform"><svg viewBox="0 0 316.416 83.922" height="83.922" width="316.416" id="textblock"><svg viewBox="0 0 316.416 83.922" height="83.922" width="316.416"><svg width="316.416" viewBox="2.85 -40.5 152.69 40.5" height="83.922" data-palette-color="#ff6bb5"><path d="M9.3 0H2.85l.7-40.5h9.6l4.45 23.55 4.8-23.55h9.25l.7 40.5H26l-.75-26.95L20.55 0H14.9l-5-27.15L9.3 0Zm42.2 0h-8.6v-16.55L35.2-40.5h8.45l3.85 12.8 3.45-12.8h8.1L51.5-16.55V0Zm32.29 0h-8.95v-40.5h17.5v6.05h-8.55v10.2h7.45V-18h-7.45V0Zm30.75 0H96.29v-40.5h8.95v34.45h9.3V0Zm12.5 0h-8.95v-40.5h8.95V0Zm10.8 0h-7.4l7.85-21.8-7.5-18.7h8.45l4.45 10.95 3.6-10.95h7.45l-7.1 21.05L155.54 0h-8.4l-4.95-12.1L137.84 0Z" opacity="1" fill="#ff6bb5" class="undefined-text-0" data-fill-palette-color="primary" id="text-0"/></svg></svg></svg></g></svg></svg></svg><path xmlns="http://www.w3.org/2000/svg" d="M0 247.2V0h395.52v247.2zm387.952-7.568V7.568H7.568v232.064z" fill="#ff6bb5" stroke-miterlimit="10" font-family="none" font-weight="none" font-size="none" text-anchor="none" style="mix-blend-mode:normal" data-fill-palette-color="tertiary"/></svg></svg></svg></svg>